<svg xmlns="http://www.w3.org/2000/svg" width="58.178" height="32.483" viewBox="0 0 58.178 32.483">
  <g id="Group_36216" data-name="Group 36216" transform="translate(0 0)">
    <g id="Group_36213" data-name="Group 36213" transform="translate(0 0)">
      <path id="Path_16057" data-name="Path 16057" d="M-6359.823-233.056q6.2,0,12.4,0c2.467,0,3.708,1.249,3.708,3.748,0,2.2.023,4.4-.008,6.606a1.525,1.525,0,0,0,.959,1.584,4.871,4.871,0,0,1,2.822,4.81c-.021,4.449.012,8.9.006,13.346,0,2.287-.113,2.381-2.336,2.385h-.541c-2.874,0-2.9,0-3.165-2.831-.075-.806-.454-.916-1.144-.915-6.423.008-12.849-.013-19.273-.026-2.066,0-4.134.025-6.2-.027-.963-.024-1.366.272-1.373,1.3-.021,2.494-.062,2.486-2.6,2.5-3.6.015-3.434.263-3.419-3.444q.024-6.067-.015-12.134a5.065,5.065,0,0,1,3.045-5.093,1.3,1.3,0,0,0,.758-1.413c-.01-2.157-.025-4.314,0-6.471.027-2.794,1.136-3.884,3.97-3.894,4.135-.015,8.269,0,12.4,0Zm-.125,20.77v.022c5.434,0,10.867-.022,16.3.018,1.128.009,1.535-.4,1.461-1.5-.07-1.073.012-2.157-.058-3.231a2.209,2.209,0,0,0-2.093-2.239c-2.244-.038-4.474-.377-6.724-.212-3.713.271-7.439.081-11.153.055-3.805-.027-7.614.061-11.423-.018-3.483-.072-4.084.776-4.082,4.279a9.664,9.664,0,0,1,0,1.077c-.159,1.334.365,1.8,1.745,1.782C-6370.636-212.328-6365.291-212.286-6359.948-212.286Zm.256,2.43v-.006h-7.277c-3.1,0-6.2-.006-9.3,0-.612,0-1.39-.105-1.412.82-.042,1.8-.01,3.594.007,5.391a.673.673,0,0,0,.752.753c.52-.016.676-.362.7-.813.009-.225.009-.449.015-.673.042-1.875.312-2.191,2.2-2.22,2.426-.038,4.853,0,7.277,0q10.444.009,20.892.019c1.806.005,2.093.326,2.116,2.133,0,.225,0,.45,0,.674.019.5-.026,1.043.692,1.084.789.044.842-.5.842-1.078,0-1.573-.08-3.149.01-4.716.066-1.166-.379-1.407-1.468-1.4C-6349-209.827-6354.344-209.856-6359.692-209.856Zm13.722-16.3h-.008c0-1.122,0-2.244,0-3.366,0-.755-.4-1.3-1.134-1.2-2.6.334-5.2-.1-7.8-.027-3.8.1-7.614.211-11.413.062-2.164-.085-4.3.118-6.45.1-.674-.007-1.137.282-1.138,1.026q-.012,3.5.006,7a.677.677,0,0,0,.731.773c.52,0,.7-.327.717-.785.024-.9-.019-1.8.058-2.691a3.028,3.028,0,0,1,3.185-2.98c1.748-.033,3.5-.024,5.248.014a2.956,2.956,0,0,1,3.234,3.285c.008.762,0,1.526.014,2.289.008.5.158.9.756.9s.749-.4.756-.9c.014-.808-.009-1.616.021-2.424a2.948,2.948,0,0,1,2.886-3.116,56.6,56.6,0,0,1,5.92,0,3.017,3.017,0,0,1,2.9,3.37q-.022,1.01-.015,2.02c0,.515.046,1.035.75,1.039s.767-.5.77-1.022C-6345.966-223.908-6345.97-225.029-6345.97-226.151Zm-7.409,4.453c4.1-.083,3.573.489,3.607-3.117.009-.775-.347-1.164-1.132-1.162q-2.421,0-4.837,0c-.754,0-1.185.3-1.185,1.109,0,3.631-.329,3.079,2.875,3.172C-6353.827-221.694-6353.6-221.7-6353.379-221.7Zm-13.134,0v-.033c.267,0,.535,0,.8,0,2.927-.017,2.9-.015,2.736-3.019-.052-.94-.481-1.255-1.344-1.24-1.25.023-2.5.011-3.753.019-1.924.012-2.082.166-2.1,2.046-.017,2.227-.017,2.227,2.178,2.226Z" transform="translate(6379.996 233.057)" fill="#fff" fill-rule="evenodd"/>
      <path id="Path_16060" data-name="Path 16060" d="M-6265.743-227.183c-.764,0-1.526.026-2.29-.007-.734-.032-1.363-.323-1.424-1.144-.057-.787.535-1.126,1.2-1.185.958-.083,1.341-.515,1.281-1.478-.068-1.092-.826-.98-1.546-1-2.019-.065-2.374-.564-1.736-2.516.458-1.408.962-2.8,1.446-4.2a.8.8,0,0,1,.048-.126c.966-1.883,2.708-.832,4.1-1.058a1.616,1.616,0,0,1,2.027,1.119c.5,1.537,1.068,3.051,1.565,4.587.514,1.585.09,2.121-1.606,2.2-.593.028-1.306-.241-1.719.442a1.309,1.309,0,0,0,.994,1.961c.752.147,1.5.361,1.41,1.289-.084.877-.826,1.088-1.6,1.112-.358.011-.718-.007-1.078-.008s-.717,0-1.078,0Zm-.08-7.061c2.061,0,2.061,0,2.061-.65,0-1.379-.984-2.757-1.96-2.742-.942.014-2.006,1.364-1.9,2.644C-6267.509-233.64-6266.342-234.538-6265.823-234.245Z" transform="translate(6316.125 242.709)" fill="#fff" fill-rule="evenodd"/>
      <g id="Group_36212" data-name="Group 36212" transform="translate(42.672 15.535)">
        <path id="Path_16059" data-name="Path 16059" d="M-6262.292-196.5q0,3.367,0,6.733c0,.749-.024,1.562-1,1.606-1.028.047-1.219-.79-1.239-1.584q-.064-2.152,0-4.308c.024-.908-.3-1.343-1.25-1.274a62.677,62.677,0,0,1-8.464-.006c-1.041-.065-1.319.417-1.285,1.366.05,1.435.03,2.873,0,4.309-.014.754-.155,1.539-1.138,1.493-.926-.044-1.1-.783-1.1-1.56-.006-4.579,0-9.157-.018-13.736a1.412,1.412,0,0,1,1.538-1.628q6.189-.034,12.386,0c1.094.005,1.6.6,1.582,1.722-.032,2.289-.009,4.579-.009,6.868Zm-7.778-1.1v.029c.583,0,1.168.01,1.752,0,3.946-.077,3.923-.078,3.793-4.069-.03-.935-.375-1.265-1.291-1.253-2.286.03-4.556.214-6.859.065-3.311-.215-2.811-.19-2.83,2.741,0,.4.028.811,0,1.213-.07.92.328,1.31,1.256,1.285C-6272.857-197.624-6271.462-197.6-6270.07-197.6Z" transform="translate(6277.778 205.103)" fill="#fff" fill-rule="evenodd"/>
        <path id="Path_16068" data-name="Path 16068" d="M-6262.812-193.729c-.536,0-1.071.016-1.608-.006a.975.975,0,0,1-1.048-.843,1,1,0,0,1,.792-1.22,9.1,9.1,0,0,1,3.852-.022,1.019,1.019,0,0,1,.881,1.168,1.013,1.013,0,0,1-1.126.92C-6261.647-193.712-6262.23-193.727-6262.812-193.729Z" transform="translate(6270.485 199.71)" fill="#fff" fill-rule="evenodd"/>
      </g>
    </g>
  </g>
</svg>
