<svg id="Group_36219" data-name="Group 36219" xmlns="http://www.w3.org/2000/svg" width="36" height="36" viewBox="0 0 36 36">
  <path id="Path_16081" data-name="Path 16081" d="M-5932.834-260.488v19.477a6.069,6.069,0,0,1-.461,1.208,4.074,4.074,0,0,1-2.7,1.956h-16.875c-.1-.032-.2-.066-.3-.1a3.613,3.613,0,0,1-2.8-3.122,2.823,2.823,0,0,0-.992-1.814c-3.5-3.459-6.958-6.951-10.447-10.417a4.79,4.79,0,0,1-1.418-2.411v-1.406a5.165,5.165,0,0,1,1.579-2.518c1.509-1.47,2.983-2.978,4.473-4.469q3.922-3.926,7.848-7.851a1.376,1.376,0,0,1,.782-.437q2.988-.426,5.975-.853c1.365-.2,2.73-.4,4.095-.605h.843a2.311,2.311,0,0,1,.61.464c.6.605,1.208,1.2,1.8,1.812.172.177.28.174.45,0,.519-.538,1.051-1.06,1.581-1.588a2.9,2.9,0,0,1,.832-.685h.7a1.132,1.132,0,0,1,.24,2c-.6.605-1.2,1.214-1.815,1.809-.174.17-.179.279,0,.452.646.628,1.273,1.275,1.917,1.906a1.231,1.231,0,0,1,.373,1.117,4.259,4.259,0,0,1-.084.554.617.617,0,0,0,.146.581c.449.585.9,1.173,1.329,1.769C-5934.389-262.6-5933.547-261.59-5932.834-260.488Zm-21.2,16.734a1.651,1.651,0,0,0,1.281-.541q6.19-6.189,12.381-12.377a.96.96,0,0,0,.278-.586c.243-1.739.5-3.476.745-5.213.171-1.193.344-2.386.51-3.58a.583.583,0,0,0-.129-.583c-.492-.468-.967-.954-1.443-1.44-.134-.137-.233-.158-.375-.009q-.524.545-1.068,1.07a.224.224,0,0,0,0,.381c.188.177.372.358.544.55a1.1,1.1,0,0,1,0,1.5,1.082,1.082,0,0,1-1.524.047q-1.551-1.5-3.056-3.058a1.076,1.076,0,0,1,.039-1.5,1.083,1.083,0,0,1,1.523-.009c.19.173.373.357.548.545.135.145.245.138.379,0,.343-.354.687-.706,1.046-1.042.177-.165.146-.274-.014-.426-.422-.406-.848-.811-1.239-1.245a.868.868,0,0,0-.865-.295q-4.169.614-8.341,1.19a1.973,1.973,0,0,0-1.209.606Q-5960-263.765-5966-257.784a1.755,1.755,0,0,0,.008,2.81l4.623,4.624q2.995,2.994,5.989,5.991A1.762,1.762,0,0,0-5954.036-243.754Zm19.065-6.853q0-4.375,0-8.75a.9.9,0,0,0-.151-.6c-.6-.782-1.182-1.573-1.775-2.358-.05-.066-.081-.2-.2-.152-.085.033-.063.141-.075.221q-.39,2.762-.782,5.525a2.083,2.083,0,0,1-.555,1.287q-6.313,6.285-12.6,12.595a4.161,4.161,0,0,1-2.341,1.252c-.418.066-.467.17-.281.565a1.8,1.8,0,0,0,1.8,1.038h14.9a1.813,1.813,0,0,0,2.059-2.049Q-5934.969-246.32-5934.971-250.607Z" transform="translate(5968.834 273.847)" fill="#fff" fill-rule="evenodd"/>
  <path id="Path_16083" data-name="Path 16083" d="M-5924.463-249.019a1.082,1.082,0,0,1,1.019,1.475c-.413,1.294-.852,2.579-1.281,3.868q-1.8,5.4-3.6,10.8c-.221.667-.63.991-1.179.951a1.09,1.09,0,0,1-.951-1.475c.453-1.4.929-2.8,1.4-4.2q1.756-5.265,3.513-10.529A1.109,1.109,0,0,1-5924.463-249.019Z" transform="translate(5942.744 256.942)" fill="#fff" fill-rule="evenodd"/>
  <path id="Path_16084" data-name="Path 16084" d="M-5907.488-232.276a3.222,3.222,0,0,1,3.21,3.193,3.234,3.234,0,0,1-3.231,3.212,3.234,3.234,0,0,1-3.194-3.214A3.227,3.227,0,0,1-5907.488-232.276Zm-.011,2.211a.976.976,0,0,0-.99,1,1.008,1.008,0,0,0,1.007,1,1,1,0,0,0,.989-1.017A.973.973,0,0,0-5907.5-230.065Z" transform="translate(5929.253 245.542)" fill="#fff" fill-rule="evenodd"/>
  <path id="Path_16085" data-name="Path 16085" d="M-5948.036-229.1a3.193,3.193,0,0,1,3.28-3.178,3.205,3.205,0,0,1,3.114,3.276,3.2,3.2,0,0,1-3.23,3.125A3.189,3.189,0,0,1-5948.036-229.1Zm3.189-.967a1,1,0,0,0-1.007,1,1.048,1.048,0,0,0,1.015,1.007,1,1,0,0,0,.989-1.014A.958.958,0,0,0-5944.847-230.064Z" transform="translate(5954.673 245.541)" fill="#fff" fill-rule="evenodd"/>
</svg>
