<svg id="Group_36218" data-name="Group 36218" xmlns="http://www.w3.org/2000/svg" width="35.602" height="38.979" viewBox="0 0 35.602 38.979">
  <path id="Path_16069" data-name="Path 16069" d="M-6153.057-246.344a23.933,23.933,0,0,1-5.078,14.994,23.5,23.5,0,0,1-6.843,5.776.852.852,0,0,1-.971-.03,23.114,23.114,0,0,1-11.338-15.737,25.3,25.3,0,0,1-.518-7.527c.037-.431.188-.6.631-.652a34.887,34.887,0,0,0,9.212-2.176,10.807,10.807,0,0,0,2.131-1.143.472.472,0,0,1,.614-.06,21.223,21.223,0,0,0,7.712,2.8c1.236.257,2.484.44,3.737.586a.572.572,0,0,1,.6.553C-6153.026-248.138-6153.127-247.308-6153.057-246.344Zm-2.348.362a5.735,5.735,0,0,1,0-.622c.061-.553-.127-.78-.727-.875a29.839,29.839,0,0,1-9.075-2.672.578.578,0,0,0-.583.017,29.962,29.962,0,0,1-9.079,2.664c-.521.083-.642.283-.643.756a23.425,23.425,0,0,0,.659,5.536,20.753,20.753,0,0,0,8.824,12.777.879.879,0,0,0,1.165.013,27.712,27.712,0,0,0,2.612-2C-6157.631-234.562-6155.652-239.893-6155.4-245.982Z" transform="translate(6177.891 264.415)" fill="#fff" fill-rule="evenodd"/>
  <path id="Path_16070" data-name="Path 16070" d="M-6098.412-256.583q0,6.187,0,12.374a3.562,3.562,0,0,1-.557,2.128,3.013,3.013,0,0,1-2.626,1.283q-7.865.013-15.73,0c-.176,0-.43.082-.5-.127s.188-.285.319-.4c.529-.465,1.09-.9,1.592-1.388a1.586,1.586,0,0,1,1.211-.488c4.27.015,8.54.009,12.81.008,1.035,0,1.084-.048,1.084-1.1v-24.561c0-1-.134-1.131-1.161-1.133-.436,0-.871,0-1.307.008-.311.009-.5-.022-.3-.407a6.212,6.212,0,0,0,.515-1.462.528.528,0,0,1,.3-.437,3.394,3.394,0,0,1,4.248,2.274,5.428,5.428,0,0,1,.106,1.173Q-6098.416-262.707-6098.412-256.583Z" transform="translate(6134.012 278.639)" fill="#fff" fill-rule="evenodd"/>
  <path id="Path_16071" data-name="Path 16071" d="M-6117.638-285.434c-1.209-.058-2.726.111-4.23-.08a4.023,4.023,0,0,1-3.48-3.463c-.131-.949.217-1.356,1.173-1.359,1.159,0,2.32-.012,3.48,0,.395.006.541-.131.563-.535a19.154,19.154,0,0,1,.234-2.281,2.674,2.674,0,0,1,2.772-2.258,2.784,2.784,0,0,1,2.533,2.622c.044.6.1,1.2.134,1.794.026.488.239.676.747.662,1.158-.033,2.319-.018,3.48-.007.757.007,1.078.331,1,1.083a3.992,3.992,0,0,1-4.25,3.813C-6114.768-285.416-6116.053-285.434-6117.638-285.434Zm.371-6.4a1.037,1.037,0,0,0,.988-1.056.958.958,0,0,0-1.031-.985.989.989,0,0,0-1,1.026A1.08,1.08,0,0,0-6117.267-291.836Z" transform="translate(6139.52 295.413)" fill="#fff" fill-rule="evenodd"/>
  <path id="Path_16072" data-name="Path 16072" d="M-6144.663-267.711c.027-.515.033-1.033.087-1.546a2.925,2.925,0,0,1,2.851-2.669h.062c1.295-.036,1.295-.036,1.73,1.163.015.039.031.077.046.115.416,1.046.416,1.046-.763,1.046-1.6,0-1.639,0-1.581,1.618a1.219,1.219,0,0,1-.866,1.369c-.271.1-.527.239-.793.354-.7.305-.74.28-.748-.517,0-.31,0-.621,0-.931Z" transform="translate(6153.612 278.259)" fill="#fff" fill-rule="evenodd"/>
  <path id="Path_16073" data-name="Path 16073" d="M-6092.186-180.015c-1.325,0-2.65.008-3.975-.006-.214,0-.591.116-.573-.243a.653.653,0,0,1,.576-.64,3.232,3.232,0,0,1,.372-.012q3.787,0,7.575,0c.381,0,.938-.073.939.442s-.573.441-.941.448C-6089.536-180-6090.861-180.015-6092.186-180.015Z" transform="translate(6118.592 211.755)" fill="#fff" fill-rule="evenodd"/>
  <path id="Path_16074" data-name="Path 16074" d="M-6104.511-245.933a.993.993,0,0,1,.714-.154q4.941-.006,9.883,0c.373,0,.946-.118.956.4s-.562.421-.936.423c-2.051.008-4.1.029-6.153,0A27.719,27.719,0,0,1-6104.511-245.933Z" transform="translate(6124.274 259.379)" fill="#fff" fill-rule="evenodd"/>
  <path id="Path_16075" data-name="Path 16075" d="M-6088.223-187.964c-1.16,0-2.32.007-3.48-.007-.188,0-.528.123-.506-.238.017-.279.145-.576.527-.58.1,0,.207-.006.311-.006h6.649c.328.012.771-.027.76.415-.011.42-.447.413-.78.414C-6085.9-187.962-6087.063-187.964-6088.223-187.964Z" transform="translate(6115.287 217.511)" fill="#fff" fill-rule="evenodd"/>
  <path id="Path_16076" data-name="Path 16076" d="M-6082.012-209.543c.788,0,1.576,0,2.364,0a1.093,1.093,0,0,1,.659.135c.3.211.291.45-.02.63a1.559,1.559,0,0,1-.789.14c-1.575,0-3.15.007-4.727-.005-.256,0-.638.123-.635-.36,0-.437.27-.549.659-.543C-6083.67-209.534-6082.841-209.543-6082.012-209.543Z" transform="translate(6110.134 232.673)" fill="#fff" fill-rule="evenodd"/>
  <path id="Path_16077" data-name="Path 16077" d="M-6080.333-238.17h2.052a1.445,1.445,0,0,1,.668.115.387.387,0,0,1,.261.319.351.351,0,0,1-.283.362,2.679,2.679,0,0,1-.669.107c-1.389.01-2.777,0-4.166,0-.368,0-.745,0-.731-.521.014-.5.41-.377.693-.383C-6081.784-238.181-6081.059-238.17-6080.333-238.17Z" transform="translate(6108.705 253.59)" fill="#fff" fill-rule="evenodd"/>
  <path id="Path_16078" data-name="Path 16078" d="M-6080.813-216.6c-.766,0-1.531.007-2.3,0-.27,0-.623.088-.618-.383s.334-.446.652-.446q2.266,0,4.531,0c.33,0,.781-.027.781.4,0,.461-.466.431-.815.433C-6079.323-216.6-6080.068-216.6-6080.813-216.6Z" transform="translate(6109.089 238.435)" fill="#fff" fill-rule="evenodd"/>
  <path id="Path_16080" data-name="Path 16080" d="M-6150.036-224.3c1.851,0,1.851,0,1.851-1.845,0-.456.017-.912,0-1.367-.016-.413.18-.542.564-.535.724.014,1.45.018,2.175,0,.428-.011.592.161.584.587-.018.849.014,1.7-.011,2.547-.014.452.138.635.6.621.828-.026,1.658.009,2.486-.012.47-.012.682.143.66.642-.03.7-.031,1.41,0,2.112.022.511-.215.647-.67.639-.786-.015-1.575.02-2.36-.011-.529-.022-.752.143-.725.7.039.806-.006,1.616.016,2.423.01.441-.136.653-.6.64-.725-.019-1.449-.013-2.174,0-.395.006-.556-.162-.549-.56.016-.869-.012-1.74.009-2.61.011-.428-.151-.6-.578-.59-.87.016-1.741-.006-2.61.006-.446.007-.641-.18-.631-.629.014-.725.012-1.45,0-2.175-.008-.42.17-.6.6-.586C-6150.947-224.29-6150.491-224.3-6150.036-224.3Z" transform="translate(6158.973 246.196)" fill="#fff" fill-rule="evenodd"/>
</svg>
